<svg width="82" height="82" viewBox="0 0 82 82" fill="none" xmlns="http://www.w3.org/2000/svg">
<path d="M43.5625 30.75C43.5625 29.3348 42.4153 28.1875 41 28.1875C39.5848 28.1875 38.4375 29.3348 38.4375 30.75L38.4375 38.4376H30.75C29.3348 38.4376 28.1875 39.5849 28.1875 41.0001C28.1875 42.4154 29.3348 43.5626 30.75 43.5626H38.4375V51.25C38.4375 52.6653 39.5848 53.8125 41 53.8125C42.4153 53.8125 43.5625 52.6653 43.5625 51.25L43.5625 43.5626H51.25C52.6653 43.5626 53.8125 42.4154 53.8125 41.0001C53.8125 39.5849 52.6653 38.4376 51.25 38.4376H43.5625V30.75Z" fill="#1C274C"/>
<path fill-rule="evenodd" clip-rule="evenodd" d="M41 4.27087C20.7151 4.27087 4.27087 20.7151 4.27087 41C4.27087 61.285 20.7151 77.7292 41 77.7292C61.285 77.7292 77.7292 61.285 77.7292 41C77.7292 20.7151 61.285 4.27087 41 4.27087ZM9.39587 41C9.39587 23.5455 23.5455 9.39587 41 9.39587C58.4545 9.39587 72.6042 23.5455 72.6042 41C72.6042 58.4545 58.4545 72.6042 41 72.6042C23.5455 72.6042 9.39587 58.4545 9.39587 41Z" fill="#1C274C"/>
</svg>
